<svg width="38" height="43" viewBox="0 0 38 43" fill="none" xmlns="http://www.w3.org/2000/svg">
<path d="M16.0412 3.95517V3.74742C16.0412 3.74742 16.0412 3.64352 16.0412 3.53962C16.2165 2.91626 16.3918 2.60457 16.3918 2.60457C16.3918 1.9812 17.1808 3.12404 18.0573 4.26688C18.0573 4.37077 18.2327 4.47466 18.3203 4.57855C18.671 5.09802 19.1093 5.6175 19.4599 5.92919C19.7229 6.24087 20.1612 5.92918 20.1612 5.5136V5.20193L19.9858 3.95517C19.9858 3.95517 20.0735 3.6435 20.2488 3.6435C21.3007 3.85129 23.4922 6.24086 23.4922 6.24086V4.05909C23.4922 2.50067 26.8232 8.63042 27.5245 10.2927C27.5245 10.5005 27.6121 10.6044 27.6121 10.7083C27.6121 10.8122 27.7875 10.9161 27.8751 10.9161C27.9628 10.9161 28.1381 10.9161 28.2257 10.9161C30.9432 11.2278 34.1865 16.3186 34.1865 16.3186H33.3976C35.6767 18.8121 35.852 21.6172 35.5014 22.0328C35.3261 22.2406 34.7125 21.4094 34.7125 21.4094C35.0631 22.1367 34.8878 23.5912 34.7125 24.6302C34.7125 24.7341 34.7125 24.9419 34.7125 25.0458C34.7125 25.0458 34.4495 25.3574 34.2742 25.1496C33.7482 24.5263 33.047 22.9679 32.6087 23.3834C32.1704 23.799 33.3099 30.9677 32.8717 32.1106C32.8717 32.3184 32.521 32.3184 32.4334 32.1106C32.3457 31.9028 32.1704 31.695 32.0827 31.3833C32.0827 31.2794 31.9074 31.1755 31.9074 31.0716C31.5568 30.5521 31.1185 29.9288 30.8555 29.5132C30.6802 29.3054 30.4172 29.5132 30.4172 29.721C30.6802 34.1885 27.1738 40.1104 26.0343 41.9805C25.9466 42.1883 25.859 42.2922 25.7713 42.3961C25.7713 42.3961 25.596 42.5 25.5083 42.3961C24.4564 41.8766 23.4922 37.0975 23.1415 35.0196C23.1415 34.9157 23.0539 34.8118 22.9662 34.8118C22.9662 34.8118 22.7909 34.8118 22.7909 34.9157C22.3526 35.7469 21.5637 36.3702 21.5637 36.3702C20.6871 36.8897 21.6513 33.1495 21.5637 31.2794C21.5637 30.9677 21.2131 30.9677 21.1254 31.2794C20.2488 34.7079 18.408 35.5391 18.408 35.5391C17.9697 35.9546 18.671 33.669 18.671 33.669C17.7067 35.2274 16.4795 36.3702 15.4276 37.0975C15.2523 37.2014 15.1646 37.3053 14.9893 37.4092C14.1127 38.0325 13.3238 38.4481 12.7978 38.6559C12.6225 38.6559 12.4472 38.552 12.5349 38.3442C12.7102 37.5131 12.6225 36.0585 12.5349 35.0196C12.5349 34.9157 12.5349 34.8118 12.5349 34.7079C12.4472 34.0846 12.2719 33.7729 12.1842 33.9807C12.1842 33.9807 11.1323 36.2663 9.4668 38.1364C9.11617 38.552 8.76553 38.9676 8.4149 39.2793C8.32724 39.3832 8.23958 39.487 8.15193 39.5909C5.60983 42.0844 5.08387 41.461 5.08387 41.461C4.82089 41.1494 6.39875 39.1754 6.39875 39.1754C6.22343 39.2793 5.96046 39.487 5.78514 39.5909C5.69748 39.5909 5.52216 39.6948 5.4345 39.7987C4.82089 40.2143 4.03197 40.526 3.3307 40.8377C3.15538 40.8377 2.8924 41.0455 2.71708 41.1494C1.8405 41.5649 1.05157 41.7727 0.613279 41.9805C0.613279 41.9805 0.437965 41.9805 0.350306 41.9805C0.262647 41.9805 0.0873325 41.9805 0.0873325 41.7728C-0.0879847 40.6299 0.0873322 39.2793 0.437967 37.8248C0.437967 37.8248 0.437967 37.7209 0.437967 37.617C0.437967 37.3053 0.613281 36.9936 0.70094 36.6819C0.70094 36.6819 0.70094 36.578 0.70094 36.4741C0.876257 35.7469 1.05157 35.1235 1.31455 34.5001C1.31455 34.5001 1.31455 34.3962 1.31455 34.2923C1.57752 33.5651 1.75284 32.9417 2.01582 32.4222C2.01582 32.4222 2.01582 32.2145 2.10348 32.1106C2.27879 31.5911 2.45411 31.1755 2.62943 30.8638C2.71709 30.656 2.62943 30.4483 2.36645 30.4483C2.36645 30.4483 2.36646 30.4483 2.2788 30.4483C1.48987 30.7599 0.350306 31.0716 0.350306 31.0716C-0.613939 30.5521 3.59367 27.0197 4.99621 25.773C5.25919 25.5652 5.4345 24.9419 5.25918 24.838C5.25918 24.838 5.17153 24.838 4.99621 24.838C4.99621 24.838 4.99621 24.838 4.8209 24.838C4.55792 24.838 4.03196 25.1496 3.85665 25.1496C3.41835 25.3574 3.06773 24.6302 3.41836 24.3185C3.59368 24.1107 3.85665 23.799 4.11963 23.5912C4.11963 23.5912 4.20728 23.5912 4.29494 23.4873C5.96046 21.825 8.15192 20.0588 9.02851 19.4354C9.20382 19.4354 9.20382 19.1238 9.02851 19.0199C9.02851 19.0199 8.85319 18.916 8.85319 18.8121C8.85319 18.8121 8.76553 18.7082 8.67787 18.6043C8.4149 18.2926 8.15193 17.9809 8.15193 17.9809C7.45066 17.2537 9.99275 16.942 11.3076 16.8381C11.3953 16.8381 11.3953 16.7342 11.3953 16.6303C9.64212 16.2147 5.4345 16.6303 5.25918 16.1108C5.08387 15.6953 6.74938 15.1758 6.74938 15.1758C6.9247 15.0719 6.9247 14.7602 6.31109 14.5524L0.350306 12.6823C0.350306 12.6823 0.0873262 12.3706 0.174985 12.2667C0.350302 11.9551 0.525625 11.7473 0.788601 11.4356C0.788601 11.3317 0.963916 11.2278 1.05157 11.1239C3.15538 8.73433 6.9247 7.38369 8.32724 6.96812C8.50255 6.96812 8.59021 6.55255 8.32724 6.44865L7.10001 5.5136C6.74938 4.78634 9.20383 5.30581 10.6064 5.5136C11.0447 5.5136 11.22 4.89023 10.8693 4.57855C10.3434 4.16297 9.9051 3.74741 9.55446 3.53962C9.37914 3.43573 9.4668 3.12401 9.55446 3.02012C12.0966 1.87728 14.551 3.02014 15.6906 3.85129C15.8659 3.85129 15.9535 3.85129 16.0412 3.6435V3.95517Z" fill="url(#paint0_linear_1365_5961)"/>
<path d="M16.042 3.74771C16.042 3.74771 16.042 3.64381 16.042 3.53992C16.7433 3.74771 17.3569 4.05939 18.0581 4.26717C18.0581 4.37107 18.2335 4.47495 18.3211 4.57884C17.5322 4.26716 16.8309 3.95548 16.042 3.64379V3.74771Z" fill="url(#paint1_linear_1365_5961)"/>
<path d="M11.2193 3.64333C12.6219 3.85112 14.0244 4.26669 15.3393 4.89005C16.7418 5.51342 18.0567 6.2407 19.4592 6.86407C21.9137 8.1108 24.3681 9.56533 26.6472 11.3315C26.9102 11.0198 27.1732 10.7081 27.4362 10.5004C26.3843 9.56531 25.3324 8.63028 24.1928 7.79912C22.8779 6.86407 21.563 6.13682 20.1605 5.40956V5.20176C22.7903 6.55239 25.2447 8.2147 27.5238 10.3965C28.8387 9.04585 29.9783 7.79911 31.1178 6.65628C32.9587 4.78618 34.4489 3.22776 35.5008 2.18882C36.5527 1.14987 37.1663 0.526508 37.1663 0.526508C37.3416 0.318719 37.6922 0.318719 37.8675 0.526508C38.0429 0.734297 38.0429 1.14985 37.8675 1.35764C37.8675 1.35764 37.2539 1.98101 36.202 3.01995C35.1501 4.05889 33.5723 5.61731 31.7314 7.48741C30.6795 8.52635 29.54 9.77309 28.3127 11.0198C28.1374 11.2276 27.9621 11.3315 27.7868 11.5393C28.6634 12.89 29.54 14.1367 30.3289 15.4873C31.8191 17.6691 33.2216 19.9547 34.1859 22.5521C34.4489 23.2794 34.7118 24.0066 34.8871 24.7339C34.8871 24.8378 34.8871 25.0456 34.8871 25.1495C34.4489 23.4872 33.9229 21.9287 33.2216 20.3703C32.5204 18.8119 31.5561 17.3574 30.5919 16.0067C29.6276 14.5522 28.6634 13.0977 27.6991 11.6432C27.3485 11.9549 26.9979 12.3705 26.6472 12.786C27.3485 14.1367 27.9621 15.4873 28.4881 16.9418C29.7153 19.9547 30.6795 23.0716 31.3808 26.2923C31.7314 27.9546 32.1697 29.8247 32.2574 31.5909C32.2574 31.487 32.0821 31.3831 32.0821 31.2792C32.0821 30.8637 32.0821 30.4481 31.9068 29.9286C31.4685 26.8118 30.6795 23.695 29.7153 20.7859C28.8387 18.0847 27.6991 15.3834 26.4719 12.786C26.4719 12.786 26.2966 12.8899 26.2966 12.9938C26.2966 12.9938 26.2966 13.0977 26.2089 13.0977C26.0336 13.3055 25.946 13.4094 25.7706 13.6172C25.8583 13.825 25.946 14.0328 26.0336 14.2406C26.2089 14.76 26.3843 15.2795 26.3843 15.9029C26.5596 17.0457 26.7349 18.1885 26.8226 19.2275C27.3485 23.2794 27.7868 27.3313 27.6115 31.3831C27.5238 35.0194 26.8226 38.5518 26.1213 42.0843C26.0336 42.292 25.946 42.3959 25.8583 42.4998C26.2089 40.5258 26.5596 38.6557 26.9102 36.6817C27.5238 32.526 27.5238 28.4741 27.1732 24.3183C26.9979 22.3443 26.7349 20.3703 26.4719 18.3964C26.2966 17.3574 26.2089 16.2146 26.0336 15.1756C25.946 14.6561 25.683 14.1367 25.5077 13.7211C24.8941 14.3445 24.2805 14.9678 23.6668 15.5912C24.3681 16.8379 24.7188 18.1886 24.8941 19.6431C25.0694 21.0976 25.157 22.656 25.2447 24.2144C25.2447 25.565 25.3324 27.0196 25.2447 28.3702C25.2447 31.0715 24.8941 33.8766 24.1051 36.3701C24.1051 36.474 23.9298 36.3701 23.9298 36.3701C24.3681 34.9156 24.7188 33.461 24.8941 31.9026C25.157 29.2014 25.157 26.5001 24.9817 23.7988C24.8941 21.0976 24.7188 18.0847 23.4039 15.799C23.0532 16.1107 22.7026 16.5262 22.352 16.8379C22.8779 18.1885 23.3162 19.5392 23.4915 20.9937C24.2805 25.669 24.0175 30.552 22.8779 35.0194C22.8779 35.0194 22.7026 35.0194 22.7026 35.1233C22.9656 34.0844 23.2286 33.0454 23.4039 31.9026C23.8422 29.4091 23.9298 26.9157 23.7545 24.3183C23.5792 21.721 23.2286 19.1236 22.2643 16.8379C22.089 16.9418 22.0013 17.1496 21.9137 17.2535C21.563 17.5652 21.3001 17.8769 20.9494 18.2924C22.6149 22.8638 23.0532 27.8507 22.2643 32.7337C22.2643 32.8376 22.089 32.7337 22.089 32.7337C22.8779 27.9546 22.4396 22.9677 20.7741 18.5002C20.1605 19.1236 19.6346 19.747 19.0209 20.3703C19.8099 22.9677 20.5111 25.6689 20.5111 28.4741C20.5111 30.9675 19.8975 33.5649 18.4073 35.435C18.4073 35.5389 18.232 35.435 18.232 35.3311C21.4754 31.2792 20.1605 25.3573 18.8456 20.5781C18.6703 20.7859 18.495 20.9937 18.3197 21.2015C17.7937 21.8248 17.1801 22.4482 16.6542 23.0716V23.2794C17.3554 25.9806 17.7061 28.8897 17.4431 31.6948C17.1801 33.7727 16.5665 35.8506 15.5146 37.5129C15.3393 37.6168 15.2516 37.7207 15.0763 37.8246C16.3035 36.0584 17.0048 33.8766 17.2678 31.6948C17.6184 28.8897 17.2678 26.0845 16.5665 23.4872C16.0406 24.0066 15.5146 24.63 15.0763 25.1495C14.7257 25.4611 14.4627 25.8767 14.1121 26.1884C14.375 29.3053 13.8491 32.6299 12.6219 35.435C12.6219 35.3311 12.6219 35.2272 12.6219 35.1233C13.7614 32.4221 14.1997 29.4091 13.9367 26.5001C13.1478 27.3313 12.4465 28.1624 11.6576 28.9935C10.9563 29.8247 10.2551 30.6559 9.55381 31.3831C9.72913 33.2532 9.72912 35.1233 9.29083 36.9934C9.11551 37.9285 8.85254 38.7596 8.50191 39.5908C8.41425 39.6947 8.32659 39.7986 8.23893 39.9025C8.58956 38.9674 8.85254 37.9285 9.11552 36.9934C9.55381 35.2272 9.55381 33.461 9.37849 31.5909C8.50191 32.5259 7.71298 33.461 7.01171 34.3961C7.01171 35.5389 6.92406 36.5778 6.66108 37.7207C6.48576 38.5518 6.22278 39.383 5.87215 40.0064C5.78449 40.0064 5.60918 40.1103 5.52152 40.2141C6.04747 39.383 6.31044 38.3441 6.57342 37.3051C6.74874 36.3701 6.92405 35.5389 6.83639 34.6038C6.66108 34.8116 6.57341 34.9155 6.3981 35.1233C6.13512 37.6168 4.99556 39.7986 3.33005 41.2531C3.15473 41.2531 2.89175 41.4609 2.71644 41.5648C4.55727 40.2142 5.78449 37.9285 6.13512 35.435C6.04747 35.5389 5.95981 35.6428 5.78449 35.8506C4.11898 37.9285 2.71644 39.5908 1.75219 40.8375C1.13858 41.5648 0.787946 42.0843 0.52497 42.4998C0.52497 42.4998 0.349656 42.4998 0.261997 42.4998C0.174338 42.4998 -0.000976562 42.4998 -0.000976562 42.292C0.174341 42.0843 0.612632 41.357 1.40156 40.4219C1.92751 39.7986 2.54112 38.9674 3.24239 38.0324C2.27815 38.0324 1.22624 38.1363 0.261997 38.344C0.261997 38.344 0.261997 38.2402 0.261997 38.1363C1.22624 37.9285 2.27815 37.8246 3.33005 37.8246C3.59303 37.5129 3.76834 37.2012 4.03132 36.8895C2.8041 36.8895 1.66453 36.8895 0.52497 37.2012C0.52497 37.2012 0.52497 37.0973 0.52497 36.9934C1.75219 36.7856 2.97941 36.6817 4.20663 36.6817C4.55727 36.2662 4.9079 35.8506 5.25853 35.3311C5.69683 34.8116 6.13513 34.2922 6.57342 33.7727C4.73259 33.8766 2.97942 34.2922 1.22625 35.0194V34.8116C2.97942 34.1883 4.73259 33.7727 6.57342 33.5649C6.57342 33.5649 6.57342 33.5649 6.66108 33.5649C6.66108 33.5649 6.66107 33.5649 6.74873 33.5649C7.97595 32.1104 9.29083 30.4481 10.781 28.7858C9.37849 28.7858 7.97596 28.9935 6.66108 29.2013C5.08322 29.513 3.50537 29.8247 2.19049 30.9676C2.19049 30.9676 2.19049 30.9676 2.10283 30.9676C2.10283 30.9676 2.10283 30.8637 2.10283 30.7598C3.33005 29.6169 4.9079 29.2013 6.3981 28.9935C7.88829 28.6819 9.46616 28.578 11.044 28.578C11.1317 28.4741 11.307 28.2663 11.3946 28.1624C10.6934 28.1624 9.90445 27.9546 9.20318 27.9546C8.23893 27.9546 7.27469 28.0585 6.31045 28.3702C4.38196 28.8897 2.27815 29.3053 0.787952 30.9676C0.787952 30.9676 0.524972 30.9675 0.612631 30.8636C2.10283 29.2013 4.20664 28.6819 6.22278 28.1624C7.18703 27.9546 8.23893 27.7468 9.29083 27.7468C10.0798 27.7468 10.8687 27.8507 11.57 27.9546C12.4465 26.9157 13.4108 25.7728 14.375 24.7339C14.7257 24.3183 15.164 23.9027 15.5146 23.4872C11.9206 23.4872 8.23893 23.5911 4.99556 25.565C4.99556 25.565 4.90791 25.565 4.73259 25.565C4.73259 25.565 4.73258 25.565 4.55727 25.565C7.88829 23.3833 11.8329 23.2794 15.6023 23.2794C15.8652 22.9677 16.2159 22.656 16.4788 22.3443C14.4627 22.1365 12.3589 22.1365 10.3427 22.3443C8.15128 22.5521 5.87215 22.9677 4.03132 24.5261C4.03132 24.5261 3.856 24.5261 3.856 24.4222C3.856 24.4222 3.856 24.4222 3.94366 24.4222C5.78449 22.9677 7.97595 22.5521 10.0798 22.3443C12.2712 22.1365 14.375 22.1365 16.5665 22.3443C16.9171 21.9287 17.2678 21.5132 17.7061 21.0976C17.969 20.7859 18.232 20.5781 18.4073 20.2665C18.232 20.2665 18.1444 20.2665 18.0567 20.2665C17.6184 20.2665 17.0924 20.0586 16.6542 19.9547C15.6899 19.747 14.8133 19.5392 13.8491 19.3314C12.0959 19.0197 10.1674 18.9158 8.50191 19.7469C8.50191 19.7469 8.41425 19.643 8.32659 19.5392C9.90444 18.8119 11.6576 18.708 13.3231 19.0197C14.2874 19.1236 15.164 19.4353 16.1282 19.6431C16.5665 19.747 17.0925 19.8508 17.5307 19.9547C17.6184 19.9547 18.232 20.1625 18.6703 20.1625C18.9333 19.8509 19.1963 19.6431 19.4592 19.3314C16.6542 18.6041 13.8491 18.0846 11.044 17.8768C11.1317 17.8768 11.1317 17.773 11.1317 17.6691C14.0244 17.8769 16.8295 18.3963 19.6345 19.2275C20.1605 18.6041 20.6865 18.0847 21.2124 17.4613C16.0405 15.3834 10.6057 13.6172 5.17088 14.9678C5.08322 14.9678 4.99557 14.76 5.17088 14.76C6.31044 14.4483 7.53766 14.3445 8.76488 14.2406C13.1478 14.1367 17.3554 15.5912 21.3877 17.2535C21.4754 17.1496 21.6507 16.9418 21.7384 16.8379C20.2482 16.2146 18.8456 15.5912 17.3554 14.9678C14.5503 13.825 11.57 13.2016 8.67722 12.3705C7.27469 11.9549 5.87215 11.7471 4.46961 11.7471C3.15474 11.7471 1.75219 11.9549 0.52497 12.3705C0.52497 12.2666 0.700294 12.1627 0.787952 12.0588C2.10283 11.6432 3.50536 11.4354 4.9079 11.5393C6.31044 11.5393 7.71298 11.9549 9.11552 12.2666C10.6934 12.6822 12.1836 13.0977 13.7614 13.5133C16.5665 14.3445 19.2839 15.4873 22.0013 16.6301C22.9656 15.5912 23.9298 14.5522 24.8941 13.5133C25.0694 13.4094 25.157 13.2016 25.3324 13.0977C24.4558 12.4743 23.4915 11.9549 22.5273 11.4354C20.3358 10.2926 17.969 9.5653 15.6899 8.63025C14.4627 8.21468 13.2355 7.69523 12.0083 7.27966C10.8687 6.86408 9.81678 6.4485 8.58956 6.34461C8.5019 6.34461 8.5019 6.13681 8.58956 6.13681C9.90444 6.13681 11.1317 6.65627 12.3589 7.17574C14.8133 8.11079 17.2678 9.04584 19.7222 9.98089C21.7384 10.812 23.6668 11.6432 25.42 12.9938C25.5953 12.786 25.7707 12.6822 25.946 12.4744C25.946 12.4744 25.946 12.2666 26.1213 12.3705C26.2089 12.3705 26.2966 12.1627 26.3843 12.0588C24.1928 10.2926 21.7384 8.83806 19.2839 7.59133C17.969 6.86407 16.6542 6.24068 15.3393 5.61731C13.9367 4.99394 12.5342 4.57838 11.1317 4.37059C11.044 4.37059 11.1317 4.16279 11.1317 4.16279L11.2193 3.64333Z" fill="url(#paint2_linear_1365_5961)"/>
<g style="mix-blend-mode:multiply" opacity="0.4">
<path d="M15.6895 4.16315C14.55 3.43589 12.0955 2.18917 9.55343 3.33201C9.37812 3.33201 9.37812 3.74758 9.55343 3.85148C9.90407 4.16316 10.3424 4.47483 10.8683 4.8904C11.2189 5.20209 11.0436 5.82545 10.6053 5.82545C9.29046 5.72156 6.74835 5.20209 7.09899 5.82545L8.32621 6.7605C8.32621 6.7605 8.41387 7.17611 8.32621 7.28001C6.92367 7.69559 3.24201 9.04619 1.05055 11.4358C0.962887 11.4358 0.875231 11.6435 0.787573 11.7474C0.612255 12.0591 0.349274 12.2669 0.173956 12.5786C0.0862979 12.7864 0.173961 12.9942 0.349278 12.9942L6.31007 14.8643C6.92368 15.0721 6.92367 15.3837 6.74835 15.4876C6.74835 15.4876 4.99518 16.0071 5.25816 16.4227C5.43347 16.8383 9.64109 16.4227 11.3943 16.9421C11.3943 16.9421 11.3943 17.1499 11.3066 17.1499C10.0794 17.2538 7.44963 17.5655 8.1509 18.2928C8.1509 18.2928 8.41387 18.6045 8.67684 18.9162C8.67684 18.9162 8.76451 19.0201 8.85217 19.124C8.85217 19.124 9.02748 19.2279 9.02748 19.3318C9.11514 19.4356 9.11514 19.6434 9.02748 19.7473C8.23855 20.3707 5.95943 22.1369 4.29391 23.7992C4.29391 23.7992 4.20626 23.9031 4.1186 23.9031C4.1186 23.9031 3.68031 24.4226 3.41733 24.6303C3.0667 25.0459 3.41733 25.6693 3.85562 25.4615C4.03094 25.4615 4.55689 25.2537 4.81987 25.1498C4.81987 25.1498 4.90752 25.1498 4.99518 25.1498C5.08284 25.1498 5.1705 25.1498 5.25816 25.1498C5.43347 25.3576 5.25816 25.8771 4.99518 26.0849C3.59264 27.4355 -0.614967 30.9679 0.349278 31.3835C0.349278 31.3835 1.48884 31.0718 2.27777 30.7601H2.36542C2.54074 30.7601 2.71606 30.9679 2.6284 31.1757C2.45309 31.4874 2.27777 31.903 2.10245 32.4224C2.10245 32.4224 2.10245 32.6302 2.01479 32.7341C1.83947 33.2536 1.5765 33.8769 1.31352 34.6042C1.31352 34.6042 1.31352 34.7081 1.31352 34.812C1.1382 35.4354 0.875229 36.1626 0.699912 36.786C0.699912 36.786 0.699912 36.8899 0.699912 36.9938C0.699912 37.3054 0.524597 37.6171 0.436938 37.9288V38.1366C0.0863039 39.5911 -0.00135438 40.9418 0.0863042 42.0846C0.0863042 42.1885 0.261619 42.2924 0.349278 42.2924C0.349278 42.2924 0.524593 42.2924 0.612251 42.2924C0.612251 42.2924 0.699914 42.2924 0.787573 42.2924C0.787573 42.1885 0.612251 42.0846 0.612251 41.8768C0.612251 41.5651 0.612253 41.2535 0.699912 41.0457C2.10245 36.4743 3.85563 32.0068 5.95943 27.7472C5.6088 27.8511 5.1705 28.0589 4.81987 28.1628L8.67684 23.3836C8.67684 23.3836 9.02748 22.9681 9.02748 22.6564C9.02748 22.3447 8.7645 22.033 8.58918 22.2408C10.693 19.3317 13.3228 17.3577 16.0402 15.6954C13.2351 15.6954 10.43 14.7604 7.7126 13.7214C8.23855 13.3059 8.67685 12.8903 9.2028 12.4747C8.93982 11.9553 8.41387 11.7474 7.97558 11.6436C8.50153 10.5007 9.72875 9.98124 10.7806 9.77345C12.4462 9.35787 14.1117 9.15009 15.7772 9.25399C16.0402 9.25399 16.2155 9.25399 16.4785 9.25399C17.0921 8.9423 17.0921 7.79945 16.4785 7.48776C18.7576 8.42281 21.0367 9.46178 23.3158 10.3968C24.1048 10.7085 24.8937 11.1241 25.7703 11.228C26.5592 11.3319 27.4358 11.228 28.2247 11.228C28.5754 11.228 28.926 11.228 29.2766 11.228C29.0136 11.1241 28.7507 11.0202 28.4877 11.0202C28.3124 11.0202 28.2247 11.0202 28.1371 11.0202C27.9617 11.0202 27.8741 11.0202 27.8741 10.8124C27.8741 10.8124 27.8741 10.6046 27.7864 10.3968C27.0852 8.63063 23.7541 2.60473 23.7541 4.16315V6.34496C23.7541 6.34496 21.6503 3.95539 20.5984 3.7476C20.4231 3.7476 20.3354 3.85148 20.3354 4.05927L20.5108 5.30599V5.51378C20.5108 5.92936 20.0725 6.24105 19.8095 5.92937C19.4589 5.61769 19.1082 5.0982 18.6699 4.57873C18.6699 4.47484 18.4946 4.37096 18.4069 4.26706C17.618 3.12422 16.8291 1.98139 16.7414 2.60475C16.7414 2.60475 16.5661 2.91644 16.3908 3.5398C16.3908 3.5398 16.3908 3.6437 16.3908 3.7476C16.3908 3.7476 16.3908 3.85146 16.3908 3.95535C16.3908 4.16314 16.2155 4.26704 16.0402 4.16315H15.6895Z" fill="url(#paint3_linear_1365_5961)"/>
</g>
<defs>
<linearGradient id="paint0_linear_1365_5961" x1="35.9245" y1="-1.24958" x2="-9.17713" y2="39.1663" gradientUnits="userSpaceOnUse">
<stop stop-color="#B00F32"/>
<stop offset="0.18" stop-color="#C3162A"/>
<stop offset="0.52" stop-color="#E3221F"/>
<stop offset="0.8" stop-color="#F62918"/>
<stop offset="1" stop-color="#FD2C16"/>
</linearGradient>
<linearGradient id="paint1_linear_1365_5961" x1="-7.81633" y1="27.2304" x2="40.2882" y2="-4.56204" gradientUnits="userSpaceOnUse">
<stop stop-color="#FA4516"/>
<stop offset="0.31" stop-color="#C73124"/>
<stop offset="0.62" stop-color="#9C2131"/>
<stop offset="0.86" stop-color="#811639"/>
<stop offset="1" stop-color="#78133C"/>
</linearGradient>
<linearGradient id="paint2_linear_1365_5961" x1="0.178175" y1="39.2948" x2="48.2831" y2="7.50259" gradientUnits="userSpaceOnUse">
<stop stop-color="#FA4516"/>
<stop offset="0.31" stop-color="#C73124"/>
<stop offset="0.62" stop-color="#9C2131"/>
<stop offset="0.86" stop-color="#811639"/>
<stop offset="1" stop-color="#78133C"/>
</linearGradient>
<linearGradient id="paint3_linear_1365_5961" x1="15.3646" y1="4.64519" x2="10.8864" y2="55.7375" gradientUnits="userSpaceOnUse">
<stop stop-color="#B00F32"/>
<stop offset="0.18" stop-color="#C3162A"/>
<stop offset="0.52" stop-color="#E3221F"/>
<stop offset="0.8" stop-color="#F62918"/>
<stop offset="1" stop-color="#FD2C16"/>
</linearGradient>
</defs>
</svg>
