<svg width="33" height="38" viewBox="0 0 33 38" fill="none" xmlns="http://www.w3.org/2000/svg">
<path d="M9.454 9.83275C9.454 9.83275 9.59654 9.69569 9.69155 9.60432C10.0241 9.28451 10.3567 9.01039 10.6892 8.73626C10.7842 8.64489 10.8792 8.5992 10.9742 8.50783C15.9625 4.94424 21.6635 5.62955 24.989 6.54329C25.7016 6.72604 26.3667 7.04585 26.9368 7.50272C27.1743 7.63978 27.3644 7.82252 27.5544 8.05096C28.1245 8.5992 28.5521 9.23882 28.8371 9.96981C29.6447 12.0257 30.0248 13.9446 29.9773 15.7264C29.9773 15.9548 29.9773 16.1376 29.9773 16.3203C29.8823 18.4219 29.2172 20.3408 28.2195 22.0769C28.172 22.1682 28.1245 22.2596 28.0295 22.3967C26.8893 24.3155 25.274 26.0059 23.4687 27.4679C23.3737 27.5136 23.3262 27.605 23.2312 27.6507C21.901 28.7015 20.5233 29.6152 19.0981 30.3919C19.003 30.4376 18.908 30.4833 18.813 30.529C17.8628 31.0315 16.9602 31.4884 16.0576 31.9453C15.9625 31.9453 15.8675 32.0366 15.7725 32.0823C14.5848 32.6306 13.3971 33.0874 12.352 33.4529C12.257 33.4529 12.1619 33.4986 12.1144 33.5443C11.9244 33.59 11.7819 33.6357 11.5918 33.727C11.4968 33.727 11.4018 33.7727 11.3543 33.8184C10.2616 34.1839 9.31148 34.4123 8.59886 34.5951C8.31382 34.6408 8.02877 34.7322 7.74372 34.7778C7.64871 34.7778 7.50619 34.8235 7.41117 34.8692C4.03813 35.783 1.80529 36.9251 0.522586 37.7475C0.427571 37.7932 0.332549 37.8389 0.237534 37.7475C0.0950116 37.7475 0 37.6104 0 37.4734C0 37.4277 0 37.3363 0 37.2906C0.950152 35.3718 1.3302 33.1331 1.56774 31.26C1.56774 31.1686 1.56774 31.0772 1.56774 31.0315C1.66276 30.4376 1.71027 29.8893 1.75778 29.3868C1.75778 29.3411 1.75778 29.2954 1.75778 29.2497C1.75778 29.2497 1.75778 29.1583 1.75778 29.1127C1.94781 27.2395 2.23286 25.5034 2.56541 23.9043C2.56541 23.813 2.56541 23.7216 2.61291 23.6302C2.89796 22.351 3.183 21.1631 3.51555 20.021C3.51555 19.9296 3.56306 19.8382 3.61057 19.7468C4.32318 17.4625 5.17832 15.4979 6.17598 13.8532C6.17598 13.7618 6.27099 13.6705 6.3185 13.6248C7.26865 12.0714 8.26631 10.8379 9.35898 9.78707L9.454 9.83275Z" fill="url(#paint0_linear_1365_5936)"/>
<path d="M9.69155 9.64987L22.091 13.1221C22.3286 12.848 22.5186 12.6195 22.7561 12.3911L10.6892 8.82751C10.6892 8.82751 10.8792 8.69044 10.9742 8.59907L23.0887 12.0256C24.4664 10.4265 25.7966 8.91888 26.9368 7.59396C27.0318 7.50258 27.1268 7.41121 27.2218 7.27415C28.7896 5.49235 30.0248 3.939 30.8799 2.8882C31.3075 2.33995 31.6401 1.92877 31.8301 1.65465C32.0201 1.38053 32.1626 1.19778 32.1626 1.19778H32.2101C32.3527 0.923654 32.6377 0.877967 32.8277 1.01503C32.8277 1.01503 32.8277 1.01503 32.8752 1.06072C33.0178 1.19778 33.0653 1.42621 32.9228 1.60896C32.9228 1.60896 32.7802 1.79171 32.5902 2.11152C32.3527 2.43133 32.0676 2.8882 31.5925 3.43644C30.7374 4.53293 29.4072 6.0406 27.8395 7.82239C27.7444 7.91376 27.6494 8.05082 27.5544 8.1422C27.2218 8.50769 26.8893 8.91888 26.5567 9.28437L29.9773 15.8176C29.9773 15.8176 29.9773 16.2288 29.9773 16.4115L26.2242 9.64987C25.274 10.7007 24.2764 11.8428 23.2312 12.985L28.2195 22.1681C28.2195 22.1681 28.1245 22.3509 28.0295 22.4879L22.8987 13.3505C21.5684 14.8125 20.1907 16.3659 18.7655 17.9192L23.5163 27.5592C23.5163 27.5592 23.3737 27.6962 23.2787 27.7419L18.4804 18.2847C17.7203 19.1071 16.9602 19.9751 16.1526 20.7975C15.9625 21.0259 15.7725 21.2087 15.5825 21.4371L19.1456 30.4831C19.1456 30.4831 18.9555 30.5745 18.8605 30.6202L15.2024 21.7569C14.5373 22.4879 13.8247 23.2189 13.1596 23.9499L16.0576 31.9908C16.0576 31.9908 15.8675 32.0822 15.7725 32.1279L12.7795 24.3154C11.8769 25.2748 10.9742 26.2799 10.1191 27.1937L12.352 33.4985C12.352 33.4985 12.1619 33.5442 12.1144 33.5899L9.78655 27.5592C9.78655 27.5592 9.54902 27.7876 9.454 27.9247L11.5918 33.7726C11.5918 33.7726 11.4018 33.8183 11.3543 33.864L9.12145 28.3358C8.26631 29.2953 7.41118 30.209 6.60355 31.0771L7.74372 34.8691C7.74372 34.8691 7.50619 34.9148 7.41117 34.9605L6.22348 31.4426C6.22348 31.4426 5.84344 31.8081 5.70091 31.9908C3.37304 34.4579 1.47273 36.5138 0.237534 37.8387C0.0950116 37.8387 0 37.7017 0 37.5646C1.14018 36.2854 2.94546 34.3208 5.13081 31.9451L1.61526 31.3512C1.61526 31.3512 1.61526 31.1684 1.61526 31.1228L5.46336 31.5796C5.79592 31.2141 6.17597 30.8029 6.55603 30.3918L1.80528 29.478C1.80528 29.478 1.80528 29.3867 1.80528 29.341C1.80528 29.341 1.80528 29.2496 1.80528 29.2039L6.84109 30.0263C7.98127 28.747 9.21647 27.4221 10.4992 26.0058L2.61291 23.9499C2.61291 23.9499 2.61291 23.7672 2.66041 23.6758L10.8317 25.5946C11.6394 24.7266 12.447 23.8128 13.2546 22.8991L3.61057 20.0208C3.61057 20.0208 3.65808 19.8381 3.70559 19.7467L13.6347 22.5336C14.2998 21.8026 14.9649 21.0259 15.6775 20.2949C16.6752 19.1985 17.6728 18.102 18.623 17.0055L6.271 13.8988C6.271 13.8988 6.36601 13.716 6.41352 13.6703L18.9555 16.64C19.9057 15.5892 20.8558 14.4927 21.7585 13.4876L9.454 9.8783C9.454 9.8783 9.59654 9.74124 9.69155 9.64987Z" fill="url(#paint1_linear_1365_5936)"/>
<path style="mix-blend-mode:multiply" opacity="0.35" d="M10.69 8.78184C10.3574 9.05596 10.0249 9.33008 9.69234 9.64989C9.59732 9.69558 9.5498 9.78695 9.45479 9.87833C8.36211 10.8834 7.36446 12.1627 6.4143 13.716C6.3668 13.8074 6.31929 13.8531 6.27179 13.9445C5.32164 15.5892 4.46649 17.5081 3.70637 19.8381C3.70637 19.9295 3.65886 20.0208 3.61136 20.1122C3.2788 21.2087 2.94626 22.3966 2.70872 23.7215C2.70872 23.8129 2.70871 23.9042 2.6612 23.9956C2.32865 25.5947 2.04361 27.3308 1.85358 29.2039C1.85358 29.2039 1.85358 29.2953 1.85358 29.341C1.85358 29.3867 1.85358 29.4324 1.85358 29.478C1.80607 29.9806 1.75856 30.5288 1.66355 31.1228C1.66355 31.2142 1.66355 31.3055 1.66355 31.3512C1.56853 32.2193 1.42601 33.133 1.18848 34.0924C3.46884 28.2902 8.07708 18.6502 12.3053 15.4521C19.7639 9.78696 25.4649 9.74127 29.8831 13.4876C29.693 12.3454 29.408 11.2033 28.9329 9.9697C28.6479 9.23871 28.2203 8.59909 27.6502 8.05085C27.4602 7.8681 27.2701 7.68535 27.0326 7.5026C26.4625 7.04573 25.7974 6.72593 25.0848 6.54318C21.8068 5.67512 16.0583 4.94413 11.07 8.50772C10.975 8.59909 10.88 8.64478 10.785 8.73615L10.69 8.78184Z" fill="url(#paint2_linear_1365_5936)"/>
<path opacity="0.25" d="M4.27601 34.7778C11.3546 32.6305 19.0509 30.2091 18.4808 28.7928C17.9582 27.4222 15.6303 26.28 12.1623 28.2902C8.69422 30.3005 1.52058 35.5545 4.22851 34.7321L4.27601 34.7778Z" fill="white"/>
<defs>
<linearGradient id="paint0_linear_1365_5936" x1="-1.92789" y1="36.9879" x2="26.9807" y2="5.84836" gradientUnits="userSpaceOnUse">
<stop stop-color="#FFC320"/>
<stop offset="0.24" stop-color="#FDB91B"/>
<stop offset="0.65" stop-color="#F99E0D"/>
<stop offset="1" stop-color="#F58300"/>
</linearGradient>
<linearGradient id="paint1_linear_1365_5936" x1="-2.06105" y1="37.0546" x2="32.8952" y2="-0.59931" gradientUnits="userSpaceOnUse">
<stop stop-color="#FFBB00"/>
<stop offset="0.22" stop-color="#F3A900"/>
<stop offset="0.66" stop-color="#D47D00"/>
<stop offset="1" stop-color="#BA5700"/>
</linearGradient>
<linearGradient id="paint2_linear_1365_5936" x1="5.57372" y1="31.9494" x2="26.3735" y2="-1.15534" gradientUnits="userSpaceOnUse">
<stop stop-color="#FFC320"/>
<stop offset="0.24" stop-color="#FDB91B"/>
<stop offset="0.65" stop-color="#F99E0D"/>
<stop offset="1" stop-color="#F58300"/>
</linearGradient>
</defs>
</svg>
