<svg width="58" height="49" viewBox="0 0 58 49" fill="none" xmlns="http://www.w3.org/2000/svg">
<path d="M31.7201 10.7764C31.7201 10.7764 31.9834 10.9662 32.0492 11.0295C32.4441 11.346 32.8389 11.6624 33.168 11.9788C33.2996 12.1054 33.4312 12.1687 33.497 12.2953C34.4183 13.118 35.2738 13.9408 36.1294 14.8268C36.9191 15.7128 37.7088 16.6621 38.4327 17.6114C38.4985 17.738 38.6301 17.8646 38.6959 17.9912C40.0779 19.8898 41.3941 21.9783 42.5787 24.0667C42.6445 24.1933 42.7761 24.3832 42.8419 24.5098C44.0265 26.6615 45.1452 28.8766 46.0008 30.9018C46.0666 31.0917 46.1324 31.2815 46.264 31.4081C48.4357 36.4078 49.8177 40.5215 50.1468 41.6607C50.1468 41.8505 50.2126 41.9771 50.2126 41.9771C50.2126 41.9771 49.7519 41.8505 48.8964 41.6607C47.317 41.2809 44.4871 40.6481 41.2625 39.9519C40.9992 39.8886 40.736 39.8253 40.4728 39.762C37.972 39.1925 35.3397 38.6229 32.9705 38.0533C32.7073 38.0533 32.444 37.9267 32.1808 37.8634C28.9561 37.104 26.1922 36.4078 24.9418 36.0914C24.0204 35.8382 23.0991 35.4585 22.1778 35.0788C21.9804 35.0155 21.7829 34.8889 21.6513 34.8256C19.348 33.6864 17.1763 32.1675 15.3336 30.3955C15.202 30.2689 15.0703 30.1423 14.9387 30.0791C14.2148 29.3829 13.5567 28.6867 12.8986 27.9273C12.767 27.8007 12.7012 27.6741 12.5696 27.5476C11.9115 26.7248 11.2534 25.8388 10.5953 24.9528C10.003 24.13 9.47657 23.244 9.01591 22.358C8.9501 22.2314 8.88425 22.1048 8.81844 21.9783C7.63387 19.6999 6.71254 17.295 5.79121 14.8268C5.79121 14.7002 5.65961 14.5736 5.65961 14.3838C5.19895 13.1813 4.80406 11.9788 4.3434 10.8397C4.3434 10.7131 4.21178 10.5865 4.14598 10.3967C3.94855 9.89035 3.75114 9.38406 3.55371 8.87776C3.4221 8.62461 3.35627 8.37146 3.22465 8.11831C3.15884 7.99174 3.09304 7.80188 3.02723 7.6753C1.84266 5.08052 0.789691 3.37175 0.131597 2.23258C0.0657873 2.106 0 1.91614 0 1.78957C0 1.53642 0.197412 1.28327 0.39484 1.0934C0.592269 0.966828 0.855496 0.903539 1.05292 1.03011C2.50073 1.47313 4.01435 1.78957 5.52797 2.16929C5.65959 2.16929 5.85701 2.23258 5.98863 2.29587C5.98863 2.29587 6.12029 2.29587 6.1861 2.29587C7.76553 2.67559 9.34491 2.92874 10.9243 3.18189C11.056 3.18189 11.2534 3.18189 11.385 3.24518C13.0302 3.49833 14.6097 3.68819 16.1891 4.00463C16.3207 4.00463 16.5182 4.00462 16.6498 4.06791C17.5711 4.25777 18.4924 4.44764 19.4138 4.70079C21.1248 5.20709 22.7701 5.77668 24.4153 6.47284C24.5469 6.47284 24.6785 6.59941 24.8101 6.66269C26.5212 7.42214 28.2322 8.37146 29.8117 9.44734C30.4039 9.82707 30.9962 10.2701 31.5885 10.6498L31.7201 10.7764Z" fill="url(#paint0_linear_1365_5968)"/>
<path d="M28.2321 23.8137L30.338 25.5858C29.6799 20.9658 30.7329 16.1559 33.1678 12.0422C33.2994 12.1688 33.431 12.2321 33.4968 12.3587C31.0619 16.5357 30.0748 21.4088 30.8645 26.0288L34.3524 28.8767C34.1549 26.1553 34.813 23.3074 36.195 20.7759C36.7873 19.6367 37.577 18.6242 38.4325 17.6748C38.4983 17.8014 38.63 17.928 38.6958 18.0546C37.9061 18.9406 37.1822 19.8899 36.5899 20.9025C35.1421 23.4973 34.5498 26.4085 34.813 29.2564L39.4855 33.0537C39.4855 29.8893 40.8675 26.9148 42.5785 24.0669C42.6444 24.1934 42.776 24.3833 42.8418 24.5099C41.1966 27.2945 39.8804 30.269 40.012 33.4334L44.2896 36.9142C44.5528 34.8257 45.1451 32.8005 46.0664 30.9019C46.1323 31.0918 46.1981 31.2816 46.3297 31.4082C45.54 33.1803 45.0135 35.1422 44.7502 37.0408V37.1674L46.3297 38.4964C46.3297 38.4964 46.5271 38.5597 46.5271 38.6863L50.2124 41.7241L57.9121 47.9895C57.9121 47.9895 58.1095 48.3692 57.9121 48.4958C57.9121 48.4958 57.5173 48.6857 57.3857 48.5591L48.9621 41.6608L45.7374 39.0027C44.6844 38.9394 43.434 39.3191 42.4469 39.5723C42.052 39.6989 41.723 39.7621 41.3282 39.8887C41.0649 39.8254 40.8017 39.7622 40.5384 39.6989C41.0649 39.509 41.5914 39.3191 42.1179 39.1926C43.0392 38.9394 44.158 38.5597 45.2109 38.4964L43.105 36.7876C41.8546 36.5978 40.5385 36.4079 39.2881 36.4712C37.8403 36.4712 36.3925 36.8509 35.0105 37.2939C34.3524 37.4838 33.6942 37.737 33.0362 37.9901C32.7729 37.9901 32.5097 37.8635 32.2465 37.8002C33.1678 37.4205 34.0891 37.1041 35.0105 36.8509C36.3266 36.4079 37.7086 36.0915 39.1564 36.0282C40.2752 36.0282 41.3281 36.0915 42.4469 36.2813L37.6428 32.3575C34.2208 32.2942 30.7986 32.6107 27.3765 33.4967C25.6655 33.9397 23.9545 34.446 22.3092 35.0789C22.1118 35.0156 21.9144 34.889 21.7827 34.8257C22.1118 34.6992 22.4409 34.5726 22.8357 34.446C24.481 33.8764 26.1262 33.3701 27.7714 32.9904C30.8645 32.2942 34.0233 31.9778 37.1164 31.9778L32.2465 27.9907C26.6527 27.5477 20.8614 28.3704 15.465 30.4589C15.3334 30.3323 15.2018 30.2057 15.0702 30.1425C20.4008 28.1173 26.0603 27.2312 31.5883 27.5477L28.8902 25.3326C25.6655 24.8263 22.4408 25.1428 19.2162 25.9022C17.1103 26.4085 15.0702 27.1679 13.0301 27.9274C12.8985 27.8008 12.8327 27.6743 12.7011 27.5477C14.807 26.7249 16.9786 25.9655 19.1504 25.4592C22.1776 24.6997 25.2048 24.4466 28.1663 24.763L22.8357 20.3962C18.2949 19.5102 13.425 20.2696 9.14735 22.4214C9.08154 22.2948 9.01574 22.1682 8.94993 22.0417C13.0301 19.9532 17.7026 19.1937 22.1118 19.8266L17.1761 15.8395C13.6882 14.5105 9.73965 14.194 5.9227 14.9535C5.9227 14.8269 5.79106 14.7003 5.79106 14.5105C9.27896 13.8143 12.8327 14.0042 16.1231 15.0168L12.043 11.7258C10.3319 11.1562 8.55506 10.8398 6.77821 10.8398C5.98849 10.8398 5.19878 10.9031 4.40906 11.0297C4.40906 10.9031 4.27745 10.7765 4.21164 10.5866C5.06717 10.4601 5.92269 10.3968 6.77821 10.3968C8.22602 10.3968 9.67383 10.5866 11.0558 10.9664L8.1602 8.56144C6.58077 8.30829 4.93557 8.18172 3.35614 8.37158C3.29033 8.245 3.22448 8.05514 3.15867 7.92857C4.60648 7.80199 6.05431 7.80199 7.50212 7.99186L0.197266 2.04283C0.197266 2.04283 0.394678 1.53654 0.592106 1.34668L5.98848 5.77679C5.79105 4.70091 5.65947 3.56174 5.72528 2.42257C5.8569 2.42257 6.05433 2.48584 6.18595 2.54913C6.18595 3.68831 6.18592 4.82749 6.51496 5.96666C6.51496 6.02995 6.51495 6.15651 6.44914 6.15651L10.5293 9.44746C10.1345 7.48555 10.4635 5.39707 11.1874 3.49844C11.319 3.49844 11.5165 3.49844 11.6481 3.56173C10.8584 5.65022 10.5951 7.86528 11.1874 9.95376L15.5967 13.5611C15.136 11.4094 15.3992 9.00445 15.8599 6.78939C16.0573 5.96665 16.2548 5.14392 16.4522 4.32119C16.5838 4.32119 16.7812 4.32119 16.9129 4.38447C16.7154 5.14392 16.518 5.84009 16.3206 6.59954C15.7941 9.00446 15.465 11.6625 16.1231 14.0042L20.9272 17.928C20.7956 15.1433 21.717 12.3587 23.0331 9.82719C23.5596 8.81459 24.0861 7.86528 24.6784 6.85268C24.81 6.85268 24.9416 6.97926 25.0732 7.04255C24.5467 7.92857 24.0203 8.87787 23.4938 9.82719C22.1118 12.4853 21.1247 15.4598 21.3879 18.371L27.7714 23.6239C26.7843 19.1304 28.956 14.8269 31.7858 11.0929C31.9174 11.1562 32.049 11.2828 32.1148 11.3461C29.2192 15.1433 27.1133 19.4469 28.2979 23.9403C28.2979 23.9403 28.2979 24.0036 28.2979 24.0669L28.2321 23.8137Z" fill="#C96500"/>
<path style="mix-blend-mode:multiply" opacity="0.25" d="M38.4319 17.6114C37.708 16.5988 36.9183 15.7128 36.1286 14.8267C35.3389 13.9407 34.4176 13.0547 33.4962 12.2952C33.3646 12.1687 33.2988 12.1054 33.1672 11.9788C32.7724 11.6624 32.4433 11.3459 32.0485 11.0295C31.9169 10.9662 31.851 10.8396 31.7194 10.7763C31.1271 10.3333 30.5348 9.9536 29.9425 9.57388C28.2973 8.49799 26.6521 7.61196 24.941 6.78923C24.8094 6.78923 24.6778 6.66266 24.5461 6.59937C22.9667 5.90321 21.3215 5.27033 19.5447 4.82732C18.6233 4.57417 17.702 4.3843 16.7806 4.19444C16.649 4.19444 16.4516 4.13115 16.32 4.13115C14.7405 3.81471 13.0953 3.62486 11.5159 3.37171C11.3843 3.37171 11.1869 3.37171 11.0552 3.30842C9.47582 3.05527 7.89639 2.80212 6.31696 2.4224C6.31696 2.4224 6.18535 2.4224 6.11954 2.4224C5.98792 2.4224 5.7905 2.35911 5.65888 2.29582C4.14526 1.9161 2.69745 1.59966 1.18383 1.15665C0.920597 1.09336 0.723178 1.15665 0.52575 1.21994C0.262512 1.34651 0.130859 1.59965 0.130859 1.91609C0.130859 2.04266 0.130887 2.23254 0.262506 2.35911C0.920601 3.435 1.97352 5.14375 3.15809 7.80182C3.15809 7.9284 3.22392 7.99169 3.28973 8.11827C3.55297 6.85252 4.27686 5.9032 6.05372 6.15635C10.2655 6.85251 30.8639 10.27 34.4176 27.2944C35.5363 32.8004 34.615 36.0913 32.7723 38.0532C32.8381 38.0532 32.904 38.0532 32.9698 38.0532C35.4047 38.6228 38.0371 39.1924 40.4721 39.762C40.7353 39.8253 40.9985 39.8886 41.2617 39.9518C44.4864 40.648 47.3162 41.3442 48.8957 41.6606C49.7512 41.8505 50.2118 41.9771 50.2118 41.9771C50.2118 41.9771 50.2119 41.8505 50.1461 41.6606C49.817 40.5214 48.435 36.4078 46.2633 31.4081C46.1975 31.2182 46.1317 31.0283 46 30.9018C45.0787 28.8766 44.0258 26.6615 42.8412 24.5097C42.7754 24.3831 42.7096 24.1933 42.578 24.0667C41.3934 21.9782 40.143 19.8897 38.6952 17.9911C38.6294 17.8645 38.4977 17.738 38.4319 17.6114Z" fill="url(#paint1_linear_1365_5968)"/>
<path opacity="0.2" d="M5.33065 9.8904C5.33065 9.8904 8.55533 16.6622 9.21343 19.0671C9.87152 21.472 14.873 30.4588 21.454 32.9903C28.0349 35.5218 24.0205 27.7375 21.7172 26.1553C19.4138 24.5098 12.8329 16.0293 12.109 14.9534C9.47663 11.2827 3.09314 4.89069 5.39647 9.95369L5.33065 9.8904Z" fill="white"/>
<defs>
<linearGradient id="paint0_linear_1365_5968" x1="-7.2205" y1="0.137272" x2="57.6158" y2="47.8987" gradientUnits="userSpaceOnUse">
<stop stop-color="#F8931F"/>
<stop offset="0.2" stop-color="#F68F1F"/>
<stop offset="0.41" stop-color="#F38322"/>
<stop offset="0.61" stop-color="#ED6F26"/>
<stop offset="0.81" stop-color="#E5532B"/>
<stop offset="1" stop-color="#DC3133"/>
</linearGradient>
<linearGradient id="paint1_linear_1365_5968" x1="8.45122" y1="21.2849" x2="46.66" y2="22.3201" gradientUnits="userSpaceOnUse">
<stop stop-color="#F8931F"/>
<stop offset="0.2" stop-color="#F68F1F"/>
<stop offset="0.41" stop-color="#F38322"/>
<stop offset="0.61" stop-color="#ED6F26"/>
<stop offset="0.81" stop-color="#E5532B"/>
<stop offset="1" stop-color="#DC3133"/>
</linearGradient>
</defs>
</svg>
